<svg width="24" height="24" viewBox="0 0 24 24" fill="none" xmlns="http://www.w3.org/2000/svg">
<g clip-path="url(#clip0_151_4189)">
<path d="M22 12C22 17.5229 17.5229 22 12 22C6.47715 22 2 17.5229 2 12C2 6.47715 6.47715 2 12 2C17.5229 2 22 6.47715 22 12ZM18.0974 7.72081C17.7423 7.36579 17.1667 7.36579 16.8117 7.72081L10.1818 14.3507L7.18828 11.3572C6.83326 11.0022 6.25765 11.0022 5.90263 11.3572C5.54761 11.7122 5.54761 12.2878 5.90263 12.6428L9.53899 16.2792C9.89402 16.6342 10.4696 16.6342 10.8246 16.2792L18.0974 9.00646C18.4524 8.65144 18.4524 8.07583 18.0974 7.72081Z" fill="#4DE088"/>
</g>
<defs>
<clipPath id="clip0_151_4189">
<rect width="24" height="24" fill="white"/>
</clipPath>
</defs>
</svg>
