<svg width="24" height="24" viewBox="0 0 24 24" fill="none" xmlns="http://www.w3.org/2000/svg">
<g clip-path="url(#clip0_37_798)">
<path d="M15.3307 7.62691V16.4436C15.3307 18.1852 14.0557 19.7352 12.3224 19.9019C10.3307 20.0936 8.66406 18.5352 8.66406 16.5852V6.28524C8.66406 5.19358 9.4474 4.20191 10.5307 4.09358C11.7807 3.96858 12.8307 4.94358 12.8307 6.16858V14.9186C12.8307 15.3769 12.4557 15.7519 11.9974 15.7519C11.5391 15.7519 11.1641 15.3769 11.1641 14.9186V7.62691C11.1641 7.28524 10.8807 7.00191 10.5391 7.00191C10.1974 7.00191 9.91406 7.28524 9.91406 7.62691V14.8019C9.91406 15.8936 10.6974 16.8852 11.7807 16.9936C13.0307 17.1186 14.0807 16.1436 14.0807 14.9186V6.31025C14.0807 4.56858 12.8057 3.01858 11.0724 2.85191C9.08906 2.66025 7.41406 4.21858 7.41406 6.16858V16.3936C7.41406 18.7852 9.16406 20.9269 11.5474 21.1519C14.2891 21.4019 16.5807 19.2686 16.5807 16.5852V7.62691C16.5807 7.28524 16.2974 7.00191 15.9557 7.00191C15.6141 7.00191 15.3307 7.28524 15.3307 7.62691Z" fill="#2E3A46"/>
</g>
<defs>
<clipPath id="clip0_37_798">
<rect width="24" height="24" fill="white"/>
</clipPath>
</defs>
</svg>
