<svg width="24" height="24" viewBox="0 0 24 24" fill="none" xmlns="http://www.w3.org/2000/svg">
<g clip-path="url(#clip0_37_892)">
<path d="M15.4305 5.25H8.5695C8.39325 5.25 8.25 5.39325 8.25 5.5695V17.7045C8.25 17.8159 8.38387 17.8725 8.46375 17.7949L11.6726 14.6813C11.8553 14.5043 12.1451 14.5043 12.3278 14.6813L15.5366 17.7949C15.6161 17.8725 15.75 17.8159 15.75 17.7049V5.56987C15.75 5.39325 15.6067 5.25 15.4305 5.25ZM15.4305 3.75C16.4351 3.75 17.25 4.56488 17.25 5.5695V19.617C17.25 20.3389 16.3822 20.7056 15.8644 20.2031L12 16.4539L8.13562 20.2035C7.61775 20.706 6.75 20.3389 6.75 19.6174V5.56987C6.75 4.56487 7.56487 3.75 8.5695 3.75H15.4305Z" fill="#2E3A46"/>
</g>
<defs>
<clipPath id="clip0_37_892">
<rect width="24" height="24" fill="white"/>
</clipPath>
</defs>
</svg>
