<svg width="24" height="24" viewBox="0 0 24 24" fill="none" xmlns="http://www.w3.org/2000/svg">
<g clip-path="url(#clip0_39_426)">
<rect x="5" y="10" width="14" height="10" fill="#2E3A46"/>
<path d="M19 4H18V2H16V4H8V2H6V4H5C3.89 4 3.01 4.9 3.01 6L3 20C3 21.1 3.89 22 5 22H19C20.1 22 21 21.1 21 20V6C21 4.9 20.1 4 19 4ZM19 20H5V10H19V20ZM19 8H5V6H19V8Z" fill="#2E3A46"/>
<path d="M7 14H9V12H7V14Z" fill="white"/>
<path d="M11 14H13V12H11V14Z" fill="white"/>
<path d="M15 14H17V12H15V14Z" fill="white"/>
<path d="M7 18H9V16H7V18Z" fill="white"/>
<path d="M11 18H13V16H11V18Z" fill="white"/>
<path d="M15 18H17V16H15V18Z" fill="white"/>
</g>
<defs>
<clipPath id="clip0_39_426">
<rect width="24" height="24" fill="white"/>
</clipPath>
</defs>
</svg>
