<svg width="24" height="23" viewBox="0 0 24 23" fill="none" xmlns="http://www.w3.org/2000/svg">
<path d="M9.53576 18.0007C9.3899 18.0006 9.24549 17.9684 9.11084 17.906C8.96967 17.8401 8.84171 17.7436 8.73449 17.6219L4.33993 12.725C4.12218 12.4803 4 12.1496 4 11.805C4 11.4604 4.12218 11.1298 4.33993 10.8851C4.44509 10.7634 4.57153 10.667 4.71143 10.6019C4.85133 10.5367 5.00172 10.5042 5.15333 10.5063C5.46637 10.5051 5.76727 10.6412 5.99102 10.8851L9.53576 14.8351L18.034 5.39297C18.1397 5.27108 18.266 5.17366 18.4056 5.10633C18.5452 5.039 18.6953 5.00309 18.8474 5.00066C19.0006 4.99489 19.153 5.02708 19.2937 5.09492C19.4344 5.16277 19.5597 5.26457 19.6608 5.39297C19.8786 5.63765 20.0007 5.96829 20.0007 6.31289C20.0007 6.65748 19.8786 6.98812 19.6608 7.2328L10.3368 17.6221C10.2296 17.7438 10.1016 17.8404 9.96042 17.9062C9.82583 17.9686 9.68151 18.0007 9.53576 18.0007Z" fill="#2E3A46"/>
</svg>
