<svg width="24" height="24" viewBox="0 0 24 24" fill="none" xmlns="http://www.w3.org/2000/svg">
<g clip-path="url(#clip0_23_771)">
<path fill-rule="evenodd" clip-rule="evenodd" d="M3.73913 12C3.73913 9.80908 4.60947 7.7079 6.15868 6.15868C7.7079 4.60947 9.80908 3.73913 12 3.73913C14.1909 3.73913 16.2921 4.60947 17.8413 6.15868C19.3905 7.7079 20.2609 9.80908 20.2609 12C20.2609 14.1909 19.3905 16.2921 17.8413 17.8413C16.2921 19.3905 14.1909 20.2609 12 20.2609C9.80908 20.2609 7.7079 19.3905 6.15868 17.8413C4.60947 16.2921 3.73913 14.1909 3.73913 12ZM12 2C6.47739 2 2 6.47739 2 12C2 17.5226 6.47739 22 12 22C17.5226 22 22 17.5226 22 12C22 6.47739 17.5226 2 12 2ZM11.1304 7.65217C11.1304 7.42155 11.222 7.20037 11.3851 7.0373C11.5482 6.87422 11.7694 6.78261 12 6.78261C12.2306 6.78261 12.4518 6.87422 12.6149 7.0373C12.778 7.20037 12.8696 7.42155 12.8696 7.65217V12H16.3478C16.5784 12 16.7996 12.0916 16.9627 12.2547C17.1258 12.4178 17.2174 12.6389 17.2174 12.8696C17.2174 13.1002 17.1258 13.3214 16.9627 13.4844C16.7996 13.6475 16.5784 13.7391 16.3478 13.7391H12C11.7694 13.7391 11.5482 13.6475 11.3851 13.4844C11.222 13.3214 11.1304 13.1002 11.1304 12.8696V7.65217Z" fill="#2E3A46"/>
</g>
<defs>
<clipPath id="clip0_23_771">
<rect width="24" height="24" fill="white"/>
</clipPath>
</defs>
</svg>
