<svg width="24" height="24" viewBox="0 0 24 24" fill="none" xmlns="http://www.w3.org/2000/svg">
<g clip-path="url(#clip0_23_623)">
<path fill-rule="evenodd" clip-rule="evenodd" d="M19.2037 6.21034C19.3858 6.02173 19.4866 5.76913 19.4843 5.50694C19.4821 5.24474 19.3769 4.99393 19.1915 4.80852C19.0061 4.62311 18.7553 4.51794 18.4931 4.51566C18.2309 4.51338 17.9783 4.61418 17.7897 4.79634L11.9967 10.5893L6.20366 4.79634C6.01506 4.61418 5.76246 4.51338 5.50026 4.51566C5.23807 4.51794 4.98725 4.62311 4.80184 4.80852C4.61644 4.99393 4.51127 5.24474 4.50899 5.50694C4.50671 5.76913 4.60751 6.02173 4.78966 6.21034L10.5827 12.0033L4.78966 17.7963C4.69415 17.8886 4.61797 17.9989 4.56556 18.1209C4.51315 18.2429 4.48557 18.3742 4.48441 18.5069C4.48326 18.6397 4.50856 18.7714 4.55884 18.8943C4.60912 19.0172 4.68338 19.1288 4.77727 19.2227C4.87116 19.3166 4.98281 19.3909 5.10571 19.4412C5.22861 19.4914 5.36029 19.5167 5.49306 19.5156C5.62584 19.5144 5.75706 19.4868 5.87907 19.4344C6.00107 19.382 6.11142 19.3058 6.20366 19.2103L11.9967 13.4173L17.7897 19.2103C17.9783 19.3925 18.2309 19.4933 18.4931 19.491C18.7553 19.4887 19.0061 19.3836 19.1915 19.1982C19.3769 19.0127 19.4821 18.7619 19.4843 18.4997C19.4866 18.2375 19.3858 17.9849 19.2037 17.7963L13.4107 12.0033L19.2037 6.21034Z" fill="#2E3A46"/>
</g>
<defs>
<clipPath id="clip0_23_623">
<rect width="24" height="24" fill="white"/>
</clipPath>
</defs>
</svg>
