<svg width="24" height="24" viewBox="0 0 24 24" fill="none" xmlns="http://www.w3.org/2000/svg">
<g clip-path="url(#clip0_91_2249)">
<path fill-rule="evenodd" clip-rule="evenodd" d="M17.4824 4.38574V5.70679H19.5883H19.59V5.7102C20.2552 5.71191 20.8581 5.97852 21.2934 6.41089C21.7253 6.83984 21.9948 7.43286 21.9965 8.08911H22V8.09253V20.6143V20.616H21.9965C21.9948 21.2722 21.7253 21.8687 21.2882 22.301C20.8546 22.7283 20.2552 22.9949 19.5918 22.9966V23H19.5883H8.92926H8.92753V22.9966C8.26414 22.9949 7.6595 22.7283 7.22415 22.2959C6.79226 21.8669 6.52276 21.2739 6.52103 20.6177H6.51758V20.6143V17.8098H4.41168H4.40995V17.8064C3.74657 17.8047 3.14192 17.5381 2.70657 17.1057C2.27468 16.6768 2.00518 16.0837 2.00346 15.4275H2V15.4241V4.38574V4.38403H2.00346C2.00518 3.72607 2.27641 3.12964 2.71176 2.69897C3.14537 2.27173 3.74484 2.00513 4.40822 2.00342V2H4.41168H15.0707H15.0725V2.00342C15.7376 2.00513 16.3405 2.27173 16.7758 2.7041C17.2077 3.13306 17.4772 3.72607 17.479 4.38232H17.4824V4.38574ZM15.6547 5.70679V4.38574V4.38232H15.6581C15.6581 4.22681 15.5907 4.08325 15.4836 3.97729C15.3783 3.87305 15.2314 3.8064 15.0742 3.8064V3.80981H15.0725H4.41341H4.40995V3.8064C4.25274 3.8064 4.10763 3.87305 4.00052 3.979C3.89514 4.08325 3.82776 4.22852 3.82776 4.38403H3.83122V4.38574V15.4241V15.4275H3.82776C3.82776 15.583 3.89514 15.7266 4.00225 15.8325C4.10763 15.9368 4.25447 16.0034 4.41168 16.0034V16H4.41341H6.51931V8.09253V8.09082H6.52276C6.52449 7.43286 6.79572 6.83643 7.23106 6.40576C7.66468 5.97852 8.26414 5.71191 8.92753 5.7102V5.70679H8.93098H15.6547ZM20.1705 20.6143V8.09253V8.08911H20.174C20.174 7.93359 20.1066 7.79004 19.9995 7.68408C19.8941 7.57983 19.7473 7.51318 19.59 7.51318V7.5166H19.5883H8.92926H8.9258V7.51318C8.76859 7.51318 8.62348 7.57983 8.51637 7.68579C8.41099 7.79004 8.34361 7.9353 8.34361 8.09082H8.34707V8.09253V20.6143V20.6177H8.34361C8.34361 20.7732 8.41099 20.9167 8.5181 21.0227C8.62348 21.127 8.77032 21.1936 8.92753 21.1936V21.1902H8.92926H19.5883H19.5918V21.1936C19.749 21.1936 19.8941 21.127 20.0012 21.021C20.1066 20.9167 20.174 20.7715 20.174 20.616H20.1705V20.6143Z" fill="#2E3A46"/>
</g>
<defs>
<clipPath id="clip0_91_2249">
<rect width="20" height="21" fill="white" transform="translate(2 2)"/>
</clipPath>
</defs>
</svg>
