<svg width="24" height="24" viewBox="0 0 24 24" fill="none" xmlns="http://www.w3.org/2000/svg">
<g clip-path="url(#clip0_23_793)">
<path fill-rule="evenodd" clip-rule="evenodd" d="M7 2.5C6.73478 2.5 6.48043 2.60536 6.29289 2.79289C6.10536 2.98043 6 3.23478 6 3.5V4.501C5.039 4.515 4.66 4.63 4.279 4.834C3.87638 5.04714 3.54714 5.37638 3.334 5.779C3.116 6.186 3 6.59 3 7.705V18.295C3 19.409 3.116 19.814 3.334 20.221C3.552 20.628 3.872 20.948 4.279 21.166C4.686 21.384 5.09 21.5 6.205 21.5H17.795C18.909 21.5 19.314 21.384 19.721 21.166C20.128 20.948 20.448 20.628 20.666 20.221C20.884 19.814 21 19.41 21 18.295V7.705C21 6.59 20.884 6.186 20.666 5.779C20.4529 5.37638 20.1236 5.04714 19.721 4.834C19.34 4.63 18.961 4.515 18 4.5V3.5C18 3.23478 17.8946 2.98043 17.7071 2.79289C17.5196 2.60536 17.2652 2.5 17 2.5C16.7348 2.5 16.4804 2.60536 16.2929 2.79289C16.1054 2.98043 16 3.23478 16 3.5V4.5H8V3.5C8 3.23478 7.89464 2.98043 7.70711 2.79289C7.51957 2.60536 7.26522 2.5 7 2.5ZM5 9.5V18.295C5 18.722 5.019 18.989 5.049 19.144C5.061 19.204 5.066 19.218 5.098 19.278C5.12452 19.3321 5.16808 19.376 5.222 19.403C5.282 19.434 5.295 19.439 5.356 19.451C5.511 19.481 5.778 19.5 6.205 19.5H17.795C18.222 19.5 18.489 19.481 18.644 19.451C18.6915 19.444 18.7371 19.4273 18.778 19.402C18.8321 19.3755 18.876 19.3319 18.903 19.278C18.9279 19.2371 18.9443 19.1915 18.951 19.144C18.981 18.989 19 18.722 19 18.295L19.004 9.5H5ZM13.75 13.5C13.5511 13.5 13.3603 13.579 13.2197 13.7197C13.079 13.8603 13 14.0511 13 14.25V16.75C13 17.164 13.336 17.5 13.75 17.5H16.25C16.4489 17.5 16.6397 17.421 16.7803 17.2803C16.921 17.1397 17 16.9489 17 16.75V14.25C17 14.0511 16.921 13.8603 16.7803 13.7197C16.6397 13.579 16.4489 13.5 16.25 13.5H13.75Z" fill="#2E3A46"/>
</g>
<defs>
<clipPath id="clip0_23_793">
<rect width="24" height="24" fill="white"/>
</clipPath>
</defs>
</svg>
