<svg width="24" height="24" viewBox="0 0 24 24" fill="none" xmlns="http://www.w3.org/2000/svg">
<g clip-path="url(#clip0_151_4177)">
<path d="M12 2C17.5228 2 22 6.47715 22 12C22 17.5228 17.5228 22 12 22C6.47715 22 2 17.5228 2 12C2 6.47715 6.47715 2 12 2ZM7.49782 7.49843C7.14279 7.85345 7.14279 8.42906 7.49782 8.78408L10.7145 12.0018L7.50252 15.2136C7.1475 15.5686 7.1475 16.1442 7.50252 16.4993C7.85755 16.8543 8.43315 16.8543 8.78817 16.4993L12 13.2873L15.2171 16.5033C15.5721 16.8584 16.1477 16.8584 16.5027 16.5033C16.8578 16.1483 16.8578 15.5727 16.5027 15.2177L13.2873 12.0018L16.5078 8.78417C16.8628 8.42914 16.8628 7.85354 16.5078 7.49852C16.1527 7.1435 15.5771 7.1435 15.2221 7.49852L12.0018 10.7164L8.78347 7.49843C8.42844 7.14341 7.85284 7.14341 7.49782 7.49843Z" fill="#FF5555"/>
</g>
<defs>
<clipPath id="clip0_151_4177">
<rect width="24" height="24" fill="white"/>
</clipPath>
</defs>
</svg>
