<svg width="24" height="24" viewBox="0 0 24 24" fill="none" xmlns="http://www.w3.org/2000/svg">
<g clip-path="url(#clip0_502_6801)">
<path d="M21.129 2.87279C20.406 2.14979 19.4895 1.69154 18.4792 1.54754C17.0085 1.33904 15.558 1.82279 14.5087 2.87279C14.2155 3.16604 14.2155 3.64079 14.5087 3.93404C14.5245 3.94979 14.5448 3.95504 14.5613 3.96854C14.5748 3.98429 14.58 4.00454 14.5958 4.02029L16.7587 6.18329L5.58675 17.3553L3.867 15.6355L13.3447 6.15779C13.638 5.86454 13.638 5.39054 13.3447 5.09729C13.0515 4.80404 12.5775 4.80404 12.2843 5.09729L2.27775 15.1038L2.2755 15.1053L1.719 15.6618C1.6485 15.7323 1.59375 15.8163 1.55625 15.907C1.5195 15.9985 1.5 16.0953 1.5 16.192V21.7518C1.5 22.1665 1.836 22.5018 2.25 22.5018H7.8105C8.00925 22.5018 8.2005 22.423 8.34075 22.282L21.129 9.49379C22.9538 7.66829 22.9538 4.69829 21.129 2.87279ZM18.2685 3.03329C18.954 3.13079 19.5765 3.44204 20.0677 3.93329C21.1245 4.99079 21.2723 6.60854 20.5282 7.83254L18.3488 5.65229L16.1617 3.46529C16.785 3.08354 17.5222 2.92754 18.2685 3.03329ZM3 21.0018V16.8903L5.055 18.9453L5.05575 18.9468L5.05725 18.9475L7.1115 21.0018H3ZM6.64725 18.4158L17.8185 7.24379L19.5382 8.96354L8.36625 20.1355L6.64725 18.4158Z" fill="#2E3A46"/>
</g>
<defs>
<clipPath id="clip0_502_6801">
<rect width="24" height="24" fill="white"/>
</clipPath>
</defs>
</svg>
