<svg width="24" height="24" viewBox="0 0 24 24" fill="none" xmlns="http://www.w3.org/2000/svg">
<g clip-path="url(#clip0_37_491)">
<path d="M4.88889 8.77778H15.5556C16.0444 8.77778 16.4444 8.37778 16.4444 7.88889C16.4444 7.4 16.0444 7 15.5556 7H4.88889C4.4 7 4 7.4 4 7.88889C4 8.37778 4.4 8.77778 4.88889 8.77778ZM4.88889 12.3333H15.5556C16.0444 12.3333 16.4444 11.9333 16.4444 11.4444C16.4444 10.9556 16.0444 10.5556 15.5556 10.5556H4.88889C4.4 10.5556 4 10.9556 4 11.4444C4 11.9333 4.4 12.3333 4.88889 12.3333ZM4.88889 15.8889H15.5556C16.0444 15.8889 16.4444 15.4889 16.4444 15C16.4444 14.5111 16.0444 14.1111 15.5556 14.1111H4.88889C4.4 14.1111 4 14.5111 4 15C4 15.4889 4.4 15.8889 4.88889 15.8889ZM18.2222 15.8889H20V14.1111H18.2222V15.8889ZM18.2222 7V8.77778H20V7H18.2222ZM18.2222 12.3333H20V10.5556H18.2222V12.3333Z" fill="#2E3A46"/>
</g>
<defs>
<clipPath id="clip0_37_491">
<rect width="24" height="24" fill="white"/>
</clipPath>
</defs>
</svg>
