<svg width="24" height="24" viewBox="0 0 24 24" fill="none" xmlns="http://www.w3.org/2000/svg">
<g clip-path="url(#clip0_101_2435)">
<path d="M10.4271 3.11512C8.46315 2.73336 6.3504 3.30112 4.82914 4.81839C3.205 6.43829 2.66599 8.73064 3.21212 10.7969C4.06456 10.0569 5.35831 10.0914 6.16954 10.9005C6.45318 11.1834 6.64188 11.5251 6.73565 11.8863C7.38957 11.7923 8.07828 11.9961 8.5814 12.4979C8.96505 12.8806 9.17501 13.3709 9.21128 13.8713C9.71266 13.9077 10.2038 14.1171 10.5871 14.4995C10.9708 14.8821 11.1807 15.3723 11.217 15.8727C11.719 15.9087 12.2109 16.1182 12.5947 16.501C13.4421 17.3462 13.4421 18.7165 12.5947 19.5617L12.2422 19.9133L13.279 20.8937C13.567 21.1661 14.0186 21.1593 14.2984 20.8784C14.5588 20.617 14.582 20.2077 14.3679 19.9199L14.3113 19.8631C14.2856 19.8373 14.2621 19.81 14.2409 19.7816L14.0883 19.6284C13.796 19.335 13.796 18.8592 14.0883 18.5658C14.3806 18.2723 14.8546 18.2723 15.1469 18.5658L15.3571 18.7767C15.4012 18.821 15.4432 18.8668 15.4828 18.9137L15.5954 19.0268C15.8728 19.3052 16.3224 19.3052 16.5998 19.0268C16.8771 18.7484 16.8771 18.297 16.5998 18.0186L16.3743 17.7922C16.2234 17.6408 16.1504 17.4407 16.1553 17.2423C16.1546 17.0491 16.2277 16.8556 16.3745 16.7082C16.6668 16.4148 17.1408 16.4148 17.4332 16.7082L17.6039 16.8797C17.9115 17.1884 18.4102 17.1884 18.7177 16.8797C19.0253 16.5709 19.0253 16.0704 18.7177 15.7616L18.6796 15.7234C18.6333 15.6827 18.5879 15.6402 18.5437 15.5959L17.3809 14.4286C17.0885 14.1351 17.0885 13.6594 17.3809 13.3659C17.6732 13.0725 18.1472 13.0725 18.4395 13.3659L19.5323 14.4628C19.5577 14.4825 19.5822 14.5041 19.6056 14.5275L19.6946 14.6169C20.1705 15.0064 20.8725 14.9785 21.3161 14.5332C21.7893 14.0582 21.7893 13.288 21.3161 12.813L20.2085 11.7011C20.1938 11.6884 20.1796 11.675 20.1658 11.661L15.6779 7.09794H14.5281L11.961 9.0503C10.7188 9.99499 8.94512 9.75491 7.99879 8.51401C7.05199 7.2725 7.29197 5.49944 8.53474 4.55429L10.4271 3.11512ZM15.9922 5.59794C16.1933 5.59794 16.3859 5.67868 16.5269 5.82204L20.57 9.93283C21.313 8.46242 21.2433 6.69049 20.3431 5.2694C19.8363 4.46938 19.1193 3.86227 18.2982 3.48852C18.2803 3.4804 18.2628 3.47158 18.2457 3.46208C17.7742 3.20109 17.2318 3.05223 16.6524 3.05223H12.9773C12.9544 3.07489 12.9299 3.09619 12.9039 3.11596L9.44276 5.74823C8.86001 6.19143 8.74756 7.02225 9.19152 7.60441C9.63596 8.1872 10.4696 8.30003 11.0529 7.85636L13.8213 5.75097C13.9518 5.6517 14.1113 5.59794 14.2753 5.59794H15.9922ZM9.52509 16.5009L8.54008 17.4834C8.27921 17.7436 7.85628 17.7436 7.59541 17.4834C7.34064 17.2293 7.33469 16.821 7.57758 16.5597L7.59639 16.5411L8.5814 15.5587L8.59919 15.5407C8.82844 15.329 9.17039 15.3071 9.42293 15.4751C9.459 15.4991 9.49325 15.527 9.52509 15.5587C9.78595 15.8189 9.78595 16.2408 9.52509 16.5009ZM9.60298 19.4849C9.79171 19.6731 10.0653 19.7252 10.3009 19.6411C10.391 19.6089 10.4755 19.5569 10.5476 19.4849L11.5327 18.5025C11.7935 18.2423 11.7935 17.8205 11.5327 17.5603C11.5001 17.5277 11.4649 17.4993 11.4279 17.4749C11.1686 17.3042 10.8163 17.3326 10.588 17.5603L9.60299 18.5427C9.53085 18.6147 9.47866 18.699 9.44642 18.7888C9.36207 19.0238 9.41426 19.2967 9.60298 19.4849ZM5.12532 12.8889L4.14031 13.8713C3.87945 14.1315 3.45651 14.1315 3.19565 13.8713C2.94087 13.6172 2.93493 13.2089 3.17781 12.9476L3.19662 12.9291L4.18163 11.9466L4.19943 11.9287C4.42868 11.7169 4.77063 11.695 5.02316 11.8631C5.05923 11.8871 5.09349 11.9149 5.12532 11.9467C5.38618 12.2069 5.38618 12.6287 5.12532 12.8889ZM7.33939 14.5583L6.35438 15.5407C6.09352 15.8009 5.67058 15.8009 5.40972 15.5407C5.15494 15.2866 5.149 14.8783 5.39189 14.617L5.41069 14.5985L6.39571 13.616L6.4135 13.5981C6.64275 13.3863 6.9847 13.3644 7.23723 13.5325C7.27331 13.5565 7.30756 13.5844 7.3394 13.6161C7.60026 13.8763 7.60026 14.2981 7.33939 14.5583Z" fill="#2E3A46"/>
</g>
<defs>
<clipPath id="clip0_101_2435">
<rect width="24" height="24" fill="white"/>
</clipPath>
</defs>
</svg>
