<svg width="24" height="24" viewBox="0 0 24 24" fill="none" xmlns="http://www.w3.org/2000/svg">
<g clip-path="url(#clip0_101_2426)">
<path d="M12.3117 3.01562C12.0836 3.01562 11.8793 3.11745 11.7417 3.27812L11.6664 3.33246C9.40952 2.66879 6.84904 3.18208 5.0618 4.87232C3.47705 6.37107 2.87077 8.44477 3.24298 10.3834L3.21992 10.4049L2.21304 11.3572C1.34565 12.1775 1.34565 13.5075 2.21304 14.3278C2.72731 14.8141 3.43103 15.0121 4.09955 14.9218C4.19574 15.2715 4.38868 15.6023 4.67837 15.8763C5.07025 16.2469 5.57214 16.4501 6.08464 16.4858C6.12235 16.9706 6.33719 17.4453 6.72915 17.816C7.12112 18.1867 7.62315 18.3899 8.13576 18.4256C8.17343 18.9104 8.38827 19.3853 8.7803 19.7561C9.57707 20.5096 10.8286 20.5709 11.6994 19.9401L12.194 20.4079C13.0657 21.2322 14.4789 21.2322 15.3505 20.4079C15.7411 20.0385 15.9566 19.5666 15.9971 19.0839C16.5063 19.0463 17.0043 18.8434 17.3939 18.4749C17.7847 18.1054 17.9993 17.6328 18.0382 17.1499C18.5413 17.1091 19.0324 16.9066 19.4176 16.5423C19.7205 16.2558 19.9176 15.9072 20.0091 15.5399C20.6676 15.6194 21.3566 15.42 21.8624 14.9416C22.7298 14.1213 22.7298 12.7913 21.8624 11.971L20.9717 11.1286L21.1414 10.4997C21.5356 9.03941 21.3364 7.49344 20.5879 6.1696C19.4843 4.21769 17.3499 3.02066 15.0509 3.02066L13.5255 3.02066C13.4568 3.01731 13.3878 3.01562 13.3184 3.01562H12.3117ZM18.8698 11.2019L19.5994 11.92C19.6452 11.9651 19.696 12.0035 19.7503 12.0349L20.7726 13.0017C21.0381 13.2528 21.0381 13.6599 20.7726 13.911C20.5071 14.1621 20.0766 14.1621 19.8111 13.911L18.1018 12.2944C17.8009 12.0098 17.3129 12.0098 17.012 12.2944L16.995 12.3105C16.6941 12.5951 16.6941 13.0565 16.995 13.3411L18.3278 14.6015C18.5935 14.8528 18.5935 15.2603 18.3278 15.5116C18.0853 15.7409 17.7041 15.7613 17.4381 15.5714C17.1301 15.3516 16.6977 15.381 16.4263 15.6403C16.1548 15.8996 16.1279 16.3087 16.3633 16.5978C16.5684 16.8496 16.5482 17.2134 16.3041 17.4443C16.0585 17.6765 15.6707 17.6943 15.4043 17.4967C15.0982 17.2696 14.6612 17.2938 14.3853 17.5532C14.1094 17.8125 14.0812 18.2257 14.3195 18.5165C14.529 18.7721 14.509 19.1424 14.2607 19.3772C13.9909 19.6323 13.5536 19.6323 13.2839 19.3772L12.8029 18.9224L12.9283 18.8038C13.7957 17.9835 13.7957 16.6535 12.9283 15.8332C12.5363 15.4625 12.0343 15.2593 11.5217 15.2237C11.484 14.7388 11.2691 14.2639 10.8771 13.8932C10.4852 13.5226 9.98335 13.3194 9.47085 13.2837C9.43314 12.7989 9.2183 12.3241 8.82634 11.9534C8.31206 11.4671 7.60834 11.2691 6.93982 11.3594C6.84363 11.0097 6.6507 10.6789 6.361 10.4049C5.90644 9.97504 5.30386 9.77044 4.70841 9.79113C4.54711 8.40539 5.02818 6.96547 6.15162 5.903C7.21354 4.89872 8.63205 4.43722 10.0217 4.51851L8.37943 5.7028C7.31187 6.47265 7.11284 7.9452 7.93773 8.97083C8.74332 9.97247 10.2262 10.1729 11.2688 9.42105L13.2877 7.96511H15.4472L18.8698 11.2019ZM9.2568 6.91944L12.5902 4.51562H13.3184C13.368 4.51562 13.4173 4.51696 13.4662 4.51958C13.4796 4.5203 13.493 4.52066 13.5064 4.52066L15.0509 4.52066C16.8384 4.52066 18.4588 5.45158 19.2822 6.90787C19.811 7.84315 19.9682 8.91954 19.7335 9.94734L16.4142 6.68057C16.2739 6.5425 16.085 6.46511 15.8881 6.46511L13.0455 6.46511C12.888 6.46511 12.7345 6.51468 12.6068 6.60679L10.3914 8.2044C9.99591 8.4896 9.41219 8.41071 9.1066 8.03075C8.82031 7.67479 8.88628 7.18663 9.2568 6.91944ZM10.8795 16.8615C11.1452 16.6128 11.5738 16.6136 11.8384 16.8639C12.1039 17.115 12.1039 17.5221 11.8384 17.7732L10.8316 18.7254C10.5661 18.9765 10.1356 18.9765 9.87012 18.7254C9.60463 18.4743 9.60463 18.0672 9.87012 17.8161L10.8795 16.8615ZM9.78972 15.8308L8.78042 16.7854C8.51492 17.0364 8.08447 17.0364 7.81897 16.7854C7.55875 16.5393 7.55358 16.1433 7.80346 15.8912L7.81946 15.8763L8.82634 14.924L8.84194 14.9091C9.10847 14.6729 9.5271 14.6778 9.7873 14.9239C10.052 15.1742 10.0528 15.5796 9.78972 15.8308ZM7.73603 13.8932L6.72915 14.8454L6.71354 14.8603C6.44702 15.0966 6.02839 15.0917 5.76819 14.8456C5.5027 14.5945 5.5027 14.1874 5.76819 13.9363L6.77507 12.9841C7.04057 12.733 7.47102 12.733 7.73651 12.9841C7.99674 13.2302 8.0019 13.6262 7.75202 13.8782L7.73603 13.8932ZM5.27118 12.3449L4.2643 13.2971C3.99881 13.5482 3.56836 13.5482 3.30286 13.2971C3.03737 13.046 3.03737 12.6389 3.30286 12.3878L4.30974 11.4356C4.57524 11.1845 5.00569 11.1845 5.27118 11.4356C5.53668 11.6867 5.53668 12.0938 5.27118 12.3449Z" fill="#2E3A46"/>
</g>
<defs>
<clipPath id="clip0_101_2426">
<rect width="24" height="24" fill="white"/>
</clipPath>
</defs>
</svg>
