<svg width="24" height="24" viewBox="0 0 24 24" fill="none" xmlns="http://www.w3.org/2000/svg">
<path d="M12.7359 5.45925L11.9974 6.22027L11.2566 5.45856C9.36777 3.51643 6.30541 3.51643 4.41661 5.45856C2.5278 7.4007 2.5278 10.5495 4.41661 12.4917L11.5211 19.7968C11.7847 20.0677 12.212 20.0677 12.4755 19.7968L19.5855 12.4903C21.4701 10.5417 21.4733 7.40174 19.5842 5.45925C17.6919 3.51358 14.6281 3.51358 12.7359 5.45925ZM18.6285 11.5117L11.9983 18.3247L5.37102 11.5103C4.00932 10.1102 4.00932 7.84007 5.37102 6.43993C6.73272 5.03978 8.94047 5.03978 10.3022 6.43993L11.5236 7.69589C11.7917 7.97148 12.2278 7.96611 12.4893 7.684L13.6903 6.44062C15.0554 5.03694 17.2646 5.03694 18.6298 6.44062C19.9918 7.8411 19.9895 10.1044 18.6285 11.5117Z" fill="#2E3A46"/>
</svg>
