<svg width="24" height="24" viewBox="0 0 24 24" fill="none" xmlns="http://www.w3.org/2000/svg">
<path d="M10.5519 3.50406C11.389 2.83198 12.611 2.83198 13.4481 3.50406L20.1981 8.92348C20.7065 9.33166 21 9.93346 21 10.5677V19.5678C21 20.3588 20.3284 21 19.5 21H15.375C14.5466 21 13.875 20.3588 13.875 19.5678V14.5553H10.125V19.5678C10.125 20.3588 9.45343 21 8.625 21H4.5C3.67157 21 3 20.3588 3 19.5678V10.5677C3 9.93346 3.29351 9.33166 3.8019 8.92348L10.5519 3.50406ZM12.4827 4.60018C12.2037 4.37615 11.7963 4.37615 11.5173 4.60018L4.7673 10.0196C4.59784 10.1557 4.5 10.3563 4.5 10.5677V19.5678H8.625V14.5553C8.625 13.7643 9.29657 13.1231 10.125 13.1231H13.875C14.7034 13.1231 15.375 13.7643 15.375 14.5553V19.5678H19.5V10.5677C19.5 10.3563 19.4022 10.1557 19.2327 10.0196L12.4827 4.60018Z" fill="#2E3A46"/>
</svg>
