<svg width="24" height="24" viewBox="0 0 24 24" fill="none" xmlns="http://www.w3.org/2000/svg">
<path fill-rule="evenodd" clip-rule="evenodd" d="M16.5 3.89844C17.938 3.89844 19.1133 5.02247 19.1954 6.43979L19.2 6.59844V10.5135L19.7345 10.276C20.2868 10.0305 20.9247 10.4115 20.9938 10.9937L21 11.0984V18.2984C21 19.2474 20.2657 20.0248 19.3343 20.0935L19.2 20.0984H4.8C3.85107 20.0984 3.07365 19.3642 3.00494 18.4328L3 18.2984V11.0984C3 10.494 3.60717 10.0659 4.1673 10.2391L4.26553 10.276L4.8 10.5135V6.59844C4.8 5.16053 5.92403 3.98514 7.34135 3.90302L7.5 3.89844H16.5ZM19.2 12.4834L12.7311 15.3584C12.2656 15.5652 11.7344 15.5652 11.2689 15.3584L4.8 12.4834V18.2984H19.2V12.4834ZM16.5 5.69844H7.5C7.00295 5.69844 6.6 6.10139 6.6 6.59844V11.3135L12 13.7136L17.4 11.3135V6.59844C17.4 6.10139 16.9971 5.69844 16.5 5.69844ZM12 8.39844C12.4971 8.39844 12.9 8.80139 12.9 9.29844C12.9 9.75999 12.5526 10.1404 12.105 10.1924L12 10.1984H10.2C9.70295 10.1984 9.3 9.79549 9.3 9.29844C9.3 8.83689 9.64744 8.45648 10.095 8.40449L10.2 8.39844H12Z" fill="#2E3A46"/>
</svg>
