<svg width="24" height="24" viewBox="0 0 24 24" fill="none" xmlns="http://www.w3.org/2000/svg">
<g clip-path="url(#clip0_49_1053)">
<g clip-path="url(#clip1_49_1053)">
<path d="M13.8887 7.37998C14.6725 6.80005 15.1819 5.86931 15.1819 4.82164C15.1819 3.0676 13.7549 1.64062 12.0009 1.64062C10.2468 1.64062 8.81984 3.0676 8.81984 4.82164C8.81984 5.86931 9.32921 6.80005 10.113 7.37998C8.69168 8.07958 7.71094 9.54265 7.71094 11.231V14.6788C7.71094 15.3973 8.17538 16.0093 8.8199 16.2303V21.062C8.8199 21.7755 9.40039 22.356 10.1139 22.356H13.8879C14.6014 22.356 15.1819 21.7755 15.1819 21.062V16.2303C15.8264 16.0093 16.2909 15.3973 16.2909 14.6788V11.231C16.2908 9.5427 15.3101 8.07958 13.8887 7.37998ZM12.0009 2.70215C13.1695 2.70215 14.1204 3.65295 14.1204 4.82164C14.1204 5.99032 13.1696 6.94112 12.0009 6.94112C10.8322 6.94112 9.88143 5.99032 9.88143 4.82164C9.88143 3.65295 10.8322 2.70215 12.0009 2.70215ZM15.2293 14.6788C15.2293 14.9996 14.9665 15.2603 14.645 15.2569C14.3528 15.2538 14.1204 15.5044 14.1204 15.7966V21.062C14.1204 21.1904 14.0163 21.2945 13.8879 21.2945H12.7891C12.6469 21.2945 12.5317 21.1792 12.5317 21.0371V16.5505C12.5317 16.2678 12.3184 16.021 12.0363 16.0027C11.7271 15.9827 11.4701 16.2275 11.4701 16.5323V21.0371C11.4701 21.1792 11.3549 21.2945 11.2127 21.2945H10.1139C9.98551 21.2945 9.88143 21.1904 9.88143 21.062V15.7966C9.88143 15.5044 9.64907 15.2539 9.35687 15.257C9.03522 15.2603 8.77247 14.9996 8.77247 14.6788V11.28C8.77247 9.5084 10.1793 8.03002 11.9507 8.00298C13.7538 7.97549 15.2293 9.43415 15.2293 11.231V14.6788Z" fill="#2E3A46"/>
<path d="M4.75638 8.74677C5.23356 8.31126 5.53347 7.68462 5.53347 6.98921C5.53347 5.67694 4.46585 4.60938 3.15358 4.60938C1.84131 4.60938 0.773687 5.67694 0.773687 6.98921C0.773687 7.68462 1.0736 8.31126 1.55078 8.74677C0.623397 9.29647 0 10.3071 0 11.4611V13.8667C0 14.3971 0.318235 14.8545 0.773743 15.0583V18.3204C0.773743 18.9067 1.25076 19.3837 1.83706 19.3837H4.47021C5.05651 19.3837 5.53347 18.9067 5.53347 18.3204V15.0583C5.98898 14.8546 6.30716 14.3971 6.30716 13.8667V11.4612C6.30716 10.3071 5.68376 9.29647 4.75638 8.74677ZM1.83527 6.98916C1.83527 6.26223 2.42666 5.67085 3.15364 5.67085C3.88062 5.67085 4.472 6.26223 4.472 6.98916C4.472 7.71608 3.88062 8.30752 3.15364 8.30752C2.42666 8.30752 1.83527 7.71608 1.83527 6.98916ZM5.24563 13.8667C5.24563 14.0006 5.13663 14.1096 5.00271 14.1096C4.70956 14.1096 4.47194 14.3472 4.47194 14.6404L4.47021 18.3221L3.6844 18.3215V15.1599C3.6844 14.8667 3.44679 14.6291 3.15364 14.6291C2.86049 14.6291 2.62287 14.8667 2.62287 15.1599V18.3208L1.83527 18.3203V14.6403C1.83527 14.3472 1.59766 14.1096 1.30451 14.1096C1.17053 14.1096 1.06153 14.0006 1.06153 13.8666V11.461C1.06153 10.3075 2.00003 9.36899 3.15358 9.36899C4.30713 9.36899 5.24563 10.3075 5.24563 11.461V13.8667Z" fill="#2E3A46"/>
<path d="M22.4517 8.74677C22.9289 8.31126 23.2288 7.68462 23.2288 6.98921C23.2288 5.67694 22.1612 4.60938 20.8489 4.60938C19.5366 4.60938 18.469 5.67694 18.469 6.98921C18.469 7.68462 18.7689 8.31126 19.2461 8.74677C18.3187 9.29647 17.6953 10.3071 17.6953 11.4611V13.8667C17.6953 14.3971 18.0135 14.8545 18.4691 15.0583V18.3204C18.4691 18.9067 18.9461 19.3837 19.5324 19.3837H22.1655C22.7518 19.3837 23.2288 18.9067 23.2288 18.3204V15.0583C23.6843 14.8546 24.0025 14.3971 24.0025 13.8667V11.4611C24.0025 10.3071 23.3791 9.29647 22.4517 8.74677ZM19.5305 6.98916C19.5305 6.26223 20.1219 5.67085 20.8489 5.67085C21.5759 5.67085 22.1673 6.26223 22.1673 6.98916C22.1673 7.71608 21.5759 8.30752 20.8489 8.30752C20.1219 8.30752 19.5305 7.71608 19.5305 6.98916ZM22.9409 13.8667C22.9409 14.0006 22.8319 14.1096 22.698 14.1096C22.4048 14.1096 22.1672 14.3472 22.1672 14.6404L22.1655 18.3221L21.3797 18.3215V15.1599C21.3797 14.8667 21.142 14.6291 20.8489 14.6291C20.5557 14.6291 20.3181 14.8667 20.3181 15.1599V18.3208L19.5305 18.3203V14.6403C19.5305 14.3472 19.2929 14.1096 18.9998 14.1096C18.8658 14.1096 18.7568 14.0006 18.7568 13.8666V11.461C18.7568 10.3075 19.6953 9.36899 20.8488 9.36899C22.0024 9.36899 22.9409 10.3075 22.9409 11.461V13.8667H22.9409Z" fill="#2E3A46"/>
</g>
</g>
<defs>
<clipPath id="clip0_49_1053">
<rect width="24" height="24" fill="white"/>
</clipPath>
<clipPath id="clip1_49_1053">
<rect width="24" height="24" fill="white"/>
</clipPath>
</defs>
</svg>
