<svg width="24" height="24" viewBox="0 0 24 24" fill="none" xmlns="http://www.w3.org/2000/svg">
<g clip-path="url(#clip0_67_3531)">
<path fill-rule="evenodd" clip-rule="evenodd" d="M8.9754 21.2918L9.02872 21.3432L9.0329 21.3473C10.01 22.2836 10.9573 22.9253 12.0288 22.913C13.0955 22.9007 14.0389 22.2422 15.0154 21.2914C16.3537 19.9947 18.0853 18.2455 19.3363 16.1704C20.5921 14.0875 21.4025 11.6115 20.7927 8.89379C18.7325 -0.290921 5.27823 -0.301682 3.20724 8.88403C2.61477 11.5247 3.36328 13.9402 4.55694 15.9874C5.74611 18.027 7.41003 19.7587 8.74447 21.0665C8.82223 21.1427 8.89896 21.2175 8.97448 21.291L8.9754 21.2918ZM12 6.86439C10.2537 6.86439 8.83793 8.28011 8.83793 10.0265C8.83793 11.7728 10.2537 13.1885 12 13.1885C13.7464 13.1885 15.1621 11.7728 15.1621 10.0265C15.1621 8.28011 13.7464 6.86439 12 6.86439Z" fill="#2E3A46"/>
</g>
<defs>
<clipPath id="clip0_67_3531">
<rect width="24" height="24" fill="white"/>
</clipPath>
</defs>
</svg>
