<svg width="24" height="24" viewBox="0 0 24 24" fill="none" xmlns="http://www.w3.org/2000/svg">
<g clip-path="url(#clip0_67_3505)">
<path d="M9.30679 19.9137C9.38202 19.9874 9.45635 20.06 9.52963 20.1312C9.54747 20.1485 9.56525 20.1656 9.58296 20.1825M9.30679 19.9137C6.71135 17.3701 3.03793 13.3668 4.0913 8.67186C5.94806 0.436375 18.0406 0.445885 19.8879 8.68137C20.9718 13.5124 17.0509 17.6016 14.4402 20.1312C12.5634 21.9588 11.4545 21.9759 9.58296 20.1825M9.30679 19.9137L9.58296 20.1825" stroke="#2E3A46" stroke-width="1.25"/>
<path d="M11.9868 12.0049C13.2999 12.0049 14.3643 10.9405 14.3643 9.62745C14.3643 8.31442 13.2999 7.25 11.9868 7.25C10.6738 7.25 9.60938 8.31442 9.60938 9.62745C9.60938 10.9405 10.6738 12.0049 11.9868 12.0049Z" stroke="#2E3A46" stroke-width="1.25"/>
</g>
<defs>
<clipPath id="clip0_67_3505">
<rect width="24" height="24" fill="white"/>
</clipPath>
</defs>
</svg>
