<svg width="24" height="24" viewBox="0 0 24 24" fill="none" xmlns="http://www.w3.org/2000/svg">
<g clip-path="url(#clip0_37_822)">
<path d="M12.0026 8.66927C12.9193 8.66927 13.6693 7.91927 13.6693 7.0026C13.6693 6.08594 12.9193 5.33594 12.0026 5.33594C11.0859 5.33594 10.3359 6.08594 10.3359 7.0026C10.3359 7.91927 11.0859 8.66927 12.0026 8.66927ZM12.0026 10.3359C11.0859 10.3359 10.3359 11.0859 10.3359 12.0026C10.3359 12.9193 11.0859 13.6693 12.0026 13.6693C12.9193 13.6693 13.6693 12.9193 13.6693 12.0026C13.6693 11.0859 12.9193 10.3359 12.0026 10.3359ZM12.0026 15.3359C11.0859 15.3359 10.3359 16.0859 10.3359 17.0026C10.3359 17.9193 11.0859 18.6693 12.0026 18.6693C12.9193 18.6693 13.6693 17.9193 13.6693 17.0026C13.6693 16.0859 12.9193 15.3359 12.0026 15.3359Z" fill="#2E3A46"/>
</g>
<defs>
<clipPath id="clip0_37_822">
<rect width="24" height="24" fill="white"/>
</clipPath>
</defs>
</svg>
