<svg width="24" height="24" viewBox="0 0 24 24" fill="none" xmlns="http://www.w3.org/2000/svg">
<path d="M9.00885 17.9008L9.09264 17.1555L8.19531 17.0547L8.26083 17.9553L9.00885 17.9008ZM14.9906 17.9008L15.7387 17.9553L15.8042 17.0547L14.9068 17.1555L14.9906 17.9008ZM8.92506 18.6461C10.9684 18.8759 13.031 18.8759 15.0744 18.6461L14.9068 17.1555C12.9748 17.3727 11.0246 17.3727 9.09264 17.1555L8.92506 18.6461ZM15.6282 18.6537C15.6846 18.4243 15.7215 18.1906 15.7387 17.9553L14.2426 17.8464C14.2316 17.9978 14.2078 18.148 14.1716 18.2956L15.6282 18.6537ZM15.5462 18.9871L15.6282 18.6537L14.1716 18.2956L14.0896 18.6289L15.5462 18.9871ZM12.8781 21.6438C14.1942 21.329 15.2227 20.3027 15.5462 18.9871L14.0896 18.6289C13.8995 19.4021 13.2962 20.0015 12.5291 20.185L12.8781 21.6438ZM11.1214 21.6438C11.6989 21.782 12.3006 21.782 12.8781 21.6438L12.5291 20.185C12.181 20.2683 11.8184 20.2683 11.4703 20.185L11.1214 21.6438ZM8.45327 18.9871C8.77676 20.3027 9.80525 21.329 11.1214 21.6438L11.4703 20.185C10.7032 20.0015 10.1 19.4021 9.90988 18.6289L8.45327 18.9871ZM8.3713 18.6537L8.45327 18.9871L9.90988 18.6289L9.82791 18.2956L8.3713 18.6537ZM8.26083 17.9553C8.27795 18.1906 8.31488 18.4243 8.3713 18.6537L9.82791 18.2956C9.79163 18.148 9.76789 17.9978 9.75688 17.8464L8.26083 17.9553Z" fill="#2E3A46"/>
<path d="M12.75 3C12.75 2.58579 12.4142 2.25 12 2.25C11.5858 2.25 11.25 2.58579 11.25 3H12.75ZM11.25 4.00474C11.25 4.41895 11.5858 4.75474 12 4.75474C12.4142 4.75474 12.75 4.41895 12.75 4.00474H11.25ZM11.25 3V4.00474H12.75V3H11.25Z" fill="#2E3A46"/>
<path d="M6.7517 8.82608C7.23925 7.02666 8.62052 5.5865 10.3896 5.01303L9.92711 3.58612C7.67951 4.31469 5.92499 6.14151 5.3039 8.4338L6.7517 8.82608ZM6.70687 8.99153L6.7517 8.82608L5.3039 8.4338L5.25907 8.59925L6.70687 8.99153ZM6.5288 12.7382C6.3153 11.4912 6.37608 10.2123 6.70687 8.99153L5.25907 8.59925C4.87128 10.0305 4.80004 11.5296 5.05032 12.9913L6.5288 12.7382ZM6.55131 12.8696L6.5288 12.7382L5.05032 12.9913L5.07282 13.1228L6.55131 12.8696ZM5.25 15.2577C5.25 14.6905 5.56385 14.1977 6.02714 13.9449L5.3088 12.6281C4.38074 13.1344 3.75 14.1224 3.75 15.2577H5.25ZM6.43731 16.7196C5.74893 16.5794 5.25 15.9698 5.25 15.2577H3.75C3.75 16.6781 4.74616 17.9059 6.13787 18.1894L6.43731 16.7196ZM6.8049 16.7945L6.43731 16.7196L6.13787 18.1894L6.50547 18.2643L6.8049 16.7945ZM17.1951 16.7945C13.7666 17.4929 10.2334 17.4929 6.8049 16.7945L6.50547 18.2643C10.1316 19.003 13.8684 19.003 17.4945 18.2643L17.1951 16.7945ZM17.5627 16.7196L17.1951 16.7945L17.4945 18.2643L17.8621 18.1894L17.5627 16.7196ZM18.75 15.2577C18.75 15.9698 18.2511 16.5794 17.5627 16.7196L17.8621 18.1894C19.2538 17.9059 20.25 16.6781 20.25 15.2577H18.75ZM17.9868 13.9526C18.4425 14.2076 18.75 14.6962 18.75 15.2577H20.25C20.25 14.1338 19.6319 13.1543 18.7192 12.6436L17.9868 13.9526ZM17.4769 12.705L17.453 12.8444L18.9315 13.0976L18.9554 12.9582L17.4769 12.705ZM17.3163 9.01392C17.6323 10.2185 17.6871 11.4773 17.4769 12.705L18.9554 12.9582C19.2017 11.5196 19.1375 10.0447 18.7672 8.63326L17.3163 9.01392ZM17.2539 8.77603L17.3163 9.01392L18.7672 8.63326L18.7047 8.39537L17.2539 8.77603ZM13.7319 5.01789C15.4622 5.58935 16.7887 7.00309 17.2539 8.77603L18.7047 8.39537C18.1113 6.13329 16.4174 4.32514 14.2023 3.59356L13.7319 5.01789ZM10.3896 5.01303C11.474 4.66153 12.6528 4.66152 13.7319 5.01789L14.2023 3.59356C12.8171 3.13607 11.3114 3.13739 9.92711 3.58612L10.3896 5.01303ZM18.7192 12.6436C18.8626 12.7238 18.966 12.8961 18.9315 13.0976L17.453 12.8444C17.3735 13.3087 17.6116 13.7426 17.9868 13.9526L18.7192 12.6436ZM5.07282 13.1228C5.03579 12.9065 5.14712 12.7163 5.3088 12.6281L6.02714 13.9449C6.39669 13.7433 6.62845 13.3202 6.55131 12.8696L5.07282 13.1228Z" fill="#2E3A46"/>
</svg>
