<svg width="32" height="32" viewBox="0 0 32 32" fill="none" xmlns="http://www.w3.org/2000/svg">
<path d="M12.0144 23.8703L12.1261 22.8766L10.9297 22.7422L11.017 23.943L12.0144 23.8703ZM19.9901 23.8703L20.9876 23.943L21.0749 22.7422L19.8784 22.8766L19.9901 23.8703ZM11.9027 24.8641C14.6272 25.1705 17.3773 25.1705 20.1018 24.8641L19.8784 22.8766C17.3024 23.1662 14.7021 23.1662 12.1261 22.8766L11.9027 24.8641ZM20.8402 24.8742C20.9154 24.5683 20.9646 24.2567 20.9876 23.943L18.9928 23.7978C18.9781 23.9997 18.9464 24.1999 18.8981 24.3967L20.8402 24.8742ZM20.7309 25.3187L20.8402 24.8742L18.8981 24.3967L18.7888 24.8411L20.7309 25.3187ZM17.1734 28.861C18.9282 28.4413 20.2996 27.0729 20.7309 25.3187L18.7888 24.8411C18.5353 25.8721 17.7309 26.6713 16.7081 26.9159L17.1734 28.861ZM14.8312 28.861C15.6012 29.0453 16.4034 29.0453 17.1734 28.861L16.7081 26.9159C16.244 27.027 15.7605 27.027 15.2964 26.9159L14.8312 28.861ZM11.2736 25.3187C11.705 27.0729 13.0763 28.4413 14.8312 28.861L15.2964 26.9159C14.2736 26.6713 13.4693 25.8721 13.2158 24.8411L11.2736 25.3187ZM11.1643 24.8742L11.2736 25.3187L13.2158 24.8411L13.1065 24.3967L11.1643 24.8742ZM11.017 23.943C11.0399 24.2567 11.0891 24.5683 11.1643 24.8742L13.1065 24.3967C13.0581 24.1999 13.0265 23.9997 13.0118 23.7978L11.017 23.943Z" fill="#2E3A46"/>
<path d="M17 4C17 3.44772 16.5523 3 16 3C15.4477 3 15 3.44772 15 4H17ZM15 5.33965C15 5.89193 15.4477 6.33965 16 6.33965C16.5523 6.33965 17 5.89193 17 5.33965H15ZM15 4V5.33965H17V4H15Z" fill="#2E3A46"/>
<path d="M9.00227 11.7707C9.65233 9.37148 11.494 7.45127 13.8528 6.68664L13.2361 4.78409C10.2393 5.75552 7.89999 8.19128 7.07187 11.2477L9.00227 11.7707ZM8.94249 11.9913L9.00227 11.7707L7.07187 11.2477L7.01209 11.4683L8.94249 11.9913ZM8.70507 16.9869C8.4204 15.3242 8.50144 13.619 8.94249 11.9913L7.01209 11.4683C6.49504 13.3766 6.40005 15.3754 6.73376 17.3244L8.70507 16.9869ZM8.73508 17.1621L8.70507 16.9869L6.73376 17.3244L6.76376 17.4997L8.73508 17.1621ZM7 20.3462C7 19.59 7.41847 18.9329 8.03619 18.5958L7.0784 16.8401C5.84099 17.5152 5 18.8325 5 20.3462H7ZM8.58308 22.2954C7.66524 22.1085 7 21.2957 7 20.3462H5C5 22.2401 6.32821 23.8772 8.18383 24.2552L8.58308 22.2954ZM9.0732 22.3953L8.58308 22.2954L8.18383 24.2552L8.67396 24.355L9.0732 22.3953ZM22.9268 22.3953C18.3555 23.3265 13.6445 23.3265 9.0732 22.3953L8.67396 24.355C13.5088 25.34 18.4912 25.34 23.326 24.355L22.9268 22.3953ZM23.4169 22.2954L22.9268 22.3953L23.326 24.355L23.8161 24.2552L23.4169 22.2954ZM25 20.3462C25 21.2957 24.3348 22.1085 23.4169 22.2954L23.8161 24.2552C25.6717 23.8772 27 22.2401 27 20.3462H25ZM23.9824 18.6061C24.59 18.9461 25 19.5976 25 20.3462H27C27 18.8477 26.1759 17.5417 24.9589 16.8608L23.9824 18.6061ZM23.3025 16.9426L23.2707 17.1285L25.242 17.4661L25.2739 17.2802L23.3025 16.9426ZM23.0884 12.0212C23.5097 13.6273 23.5828 15.3057 23.3025 16.9426L25.2739 17.2802C25.6023 15.3621 25.5167 13.3956 25.0229 11.5136L23.0884 12.0212ZM23.0052 11.704L23.0884 12.0212L25.0229 11.5136L24.9396 11.1964L23.0052 11.704ZM18.3092 6.69312C20.6163 7.45507 22.3849 9.34005 23.0052 11.704L24.9396 11.1964C24.1484 8.18032 21.8899 5.76945 18.9364 4.79401L18.3092 6.69312ZM13.8528 6.68664C15.2987 6.21797 16.8704 6.21796 18.3092 6.69312L18.9364 4.79401C17.0895 4.18403 15.0819 4.18579 13.2361 4.78409L13.8528 6.68664ZM24.9589 16.8608C25.1501 16.9677 25.288 17.1974 25.242 17.4661L23.2707 17.1285C23.1647 17.7476 23.4821 18.3261 23.9824 18.6061L24.9589 16.8608ZM6.76376 17.4997C6.71439 17.2113 6.86283 16.9577 7.0784 16.8401L8.03619 18.5958C8.52892 18.327 8.83793 17.7629 8.73508 17.1621L6.76376 17.4997Z" fill="#2E3A46"/>
<path d="M16.4533 7.36659C15.8553 7.36659 15.2551 7.35152 14.6574 7.36659C13.6415 7.3922 12.7041 8.0799 12.0159 8.77373C10.7201 10.0801 10.4354 12.2669 10.0101 13.9919C9.8042 14.8269 9.60731 15.6347 9.56882 16.5007C9.55628 16.7828 9.61578 17.7966 9.55339 16.9389C9.47516 15.8632 9.59995 14.8696 9.73237 13.8036C9.83712 12.9604 9.86619 12.2094 10.2292 11.4275C10.813 10.17 11.7876 9.26431 12.8244 8.35714C13.8332 7.47439 14.9281 6.27676 16.3422 6.21249C17.1146 6.17738 17.6597 6.74779 18.3727 6.96543C19.236 7.22897 20.0932 7.52778 20.4742 8.44663C20.6222 8.80356 20.6529 9.12344 20.9895 9.34461C21.5646 9.72254 21.9286 10.0603 22.051 10.7487C22.1951 11.5591 22.2397 12.3849 22.3843 13.1988C22.5426 14.0899 22.7299 14.8813 22.7299 15.794C22.7299 16.2513 22.7438 16.7744 23.0632 17.1394C23.3414 17.4574 23.2298 18.0094 23.2298 18.4015C23.2298 18.5132 23.6983 18.8856 23.8593 19.1607C24.0421 19.4728 24.1884 19.6767 24.171 20.0432C24.1537 20.4067 24.1944 20.7721 23.8933 21.0029C23.5893 21.2359 23.2165 21.3478 22.8719 21.5059C22.2381 21.7967 21.7026 22.2518 21.0759 22.5489C20.5128 22.8159 19.7818 22.683 19.1812 22.7217C18.2032 22.7848 17.2288 22.8532 16.2497 22.7587C15.1953 22.657 14.1664 22.3238 13.1114 22.2588C12.3229 22.2103 11.5275 22.2808 10.7384 22.2465C9.88118 22.2092 9.30181 21.7648 8.54124 21.4627C8.22498 21.337 7.51905 21.1923 7.65869 20.7036C7.95994 19.6492 9.00099 19.0242 9.5287 18.1176C9.69615 17.83 9.80437 17.5234 9.9206 17.2135C10.0004 17.0007 9.95455 17.2695 9.95455 17.3678C9.95455 17.8422 9.92566 18.3263 9.96072 18.7996C10.0078 19.4348 10.7496 19.6504 11.2815 19.7284C11.4635 19.7551 11.771 19.6951 11.9295 19.821C12.0833 19.9432 11.9889 20.1165 11.8431 20.179C11.3295 20.3991 10.5667 20.5556 10.0101 20.4505C9.36905 20.3296 10.461 18.5793 10.5501 18.4231C11.2112 17.2647 11.9431 16.1888 12.3831 14.9176C12.7198 13.945 13.0541 12.9383 13.2842 11.9336C13.5598 10.7301 13.8738 9.56279 14.6635 8.57932C14.8929 8.2937 15.215 7.70684 15.6541 7.75849C15.8913 7.7864 16.1384 7.8508 16.3083 8.02696C16.5965 8.32582 16.8245 8.69703 17.0643 9.03294C17.6173 9.80757 18.19 10.5684 18.7368 11.3473C19.0258 11.7589 19.2046 12.1525 19.4219 12.5817C19.5985 12.9304 19.9002 13.2514 20.144 13.5475C20.249 13.6751 20.6216 14.2314 20.829 14.3282C20.8303 14.3288 20.7274 13.8891 20.6994 13.8345C20.5185 13.4812 20.2401 13.2209 20.1008 12.8316C19.7322 11.8023 19.6904 10.6964 19.3447 9.65937C19.2275 9.30766 19.1031 8.80465 18.8973 8.48983C18.8824 8.46703 18.7677 8.31694 18.7307 8.39109C18.6358 8.58072 18.6607 8.98565 18.6597 9.15637C18.6545 10.0596 18.7759 10.9403 18.9714 11.8225C19.5332 14.3589 20.5473 16.7513 21.2271 19.244C21.2839 19.4522 21.0822 19.8326 21.3444 19.6914C21.6609 19.521 21.779 19.0792 21.8535 18.7533C21.884 18.62 21.9845 18.3978 22.1498 18.5867C22.1695 18.6093 21.2634 18.6618 21.1993 18.6669C20.4769 18.7251 19.9064 18.9228 19.3509 19.389C18.696 19.9386 18.0633 20.5716 17.2063 20.7745C15.9987 21.0605 14.8073 21.0007 13.7316 20.3394C13.1124 19.9588 13.2307 19.3658 13.3922 18.7348C13.7247 17.4353 14.2325 16.1836 14.7252 14.9392C15.1341 13.9068 15.363 12.8242 15.7559 11.7917C15.9322 11.3284 16.1756 10.9106 16.1756 10.4031C16.1756 10.3682 16.1753 10.2266 16.1725 10.2364C15.9357 11.0651 15.6347 11.8786 15.3887 12.7051C14.8854 14.3963 14.4516 16.096 14.4043 17.8677C14.3913 18.3574 14.3925 18.8496 14.3982 19.3396C14.4113 20.4684 15.8933 19.0253 16.1386 18.6731C16.5278 18.1142 16.6487 17.505 16.7187 16.8401C16.8354 15.7318 16.9171 14.617 16.9779 13.5043C17.0113 12.8945 17.1538 12.0539 16.8946 11.4708C16.7918 11.2396 16.7165 11.0051 16.6508 10.761C16.6082 10.6026 16.5756 10.5439 16.7002 10.6684C16.973 10.9412 16.6667 10.3757 16.5953 10.3105C16.3817 10.1155 16.0664 9.96509 15.8238 9.8044C15.7516 9.75657 15.481 9.55879 15.614 9.7828C16.1378 10.665 16.8603 11.4384 17.4284 12.2947C18.2465 13.5274 18.813 14.8488 19.3417 16.226C19.3499 16.2474 20.2029 18.1168 19.5392 18.1423C19.2058 18.1551 18.8708 17.9598 18.5393 17.9078C18.4407 17.8923 18.2917 17.89 18.2308 17.7967C18.2042 17.7561 18.1228 17.5582 18.2061 17.5344C18.3382 17.4967 18.3952 17.6505 18.4468 17.7412C18.8351 18.4237 19.2408 19.0986 19.607 19.7932C19.8228 20.2025 20.0316 20.6146 20.252 21.0214C20.2701 21.0548 20.3415 21.2655 20.3415 21.1973" stroke="#2E3A46" stroke-width="3" stroke-linecap="round"/>
</svg>
