<svg width="24" height="24" viewBox="0 0 24 24" fill="none" xmlns="http://www.w3.org/2000/svg">
<path d="M8.25 4.125C7.14488 4.125 6.1324 4.69104 5.60815 5.60229C5.40415 5.95667 5.16335 6.53483 5.03247 6.91846C4.91247 7.24696 3.07915 11.3494 1.9519 13.8574L1.95703 13.8596C1.6667 14.4353 1.5 15.0743 1.5 15.75C1.5 18.2314 3.687 20.25 6.375 20.25C9.063 20.25 11.25 18.2314 11.25 15.75V14.3723C11.4515 14.3096 11.7112 14.25 12 14.25C12.2898 14.25 12.5488 14.3096 12.75 14.3723V15.75C12.75 18.2314 14.937 20.25 17.625 20.25C20.313 20.25 22.5 18.2314 22.5 15.75C22.5 15.0743 22.3333 14.4353 22.043 13.8596L22.0481 13.8574C20.9208 11.349 19.0879 7.24758 18.9697 6.92358C18.837 6.53546 18.5958 5.9574 18.3918 5.60303C17.8676 4.6914 16.8551 4.125 15.75 4.125C14.1357 4.125 12.8185 5.3274 12.7559 6.8269C12.5264 6.78168 12.273 6.75 12 6.75C11.727 6.75 11.4736 6.78168 11.2441 6.8269C11.1815 5.3274 9.8643 4.125 8.25 4.125ZM8.25 5.625C9.07725 5.625 9.75 6.21375 9.75 6.9375V12.5105C8.87318 11.7319 7.68483 11.25 6.375 11.25C5.75801 11.25 5.16978 11.3608 4.62598 11.5547C5.48207 9.64008 6.36586 7.65426 6.44971 7.40918C6.57308 7.04805 6.77544 6.58333 6.90894 6.35083C7.16619 5.90346 7.68 5.625 8.25 5.625ZM15.75 5.625C16.32 5.625 16.8338 5.90308 17.0911 6.35083C17.2249 6.58333 17.4265 7.04841 17.5503 7.40991C17.6341 7.65473 18.5174 9.64033 19.3733 11.5547C18.8297 11.3609 18.2417 11.25 17.625 11.25C16.3152 11.25 15.1268 11.7319 14.25 12.5105V6.9375C14.25 6.21375 14.9227 5.625 15.75 5.625ZM12 8.25C12.2898 8.25 12.5488 8.30963 12.75 8.37231V9.82544C12.5221 9.78088 12.2705 9.75 12 9.75C11.7295 9.75 11.4779 9.78088 11.25 9.82544V8.37231C11.4515 8.30962 11.7112 8.25 12 8.25ZM12 11.25C12.2898 11.25 12.5488 11.3096 12.75 11.3723V12.8254C12.5221 12.7809 12.2705 12.75 12 12.75C11.7295 12.75 11.4779 12.7809 11.25 12.8254V11.3723C11.4515 11.3096 11.7112 11.25 12 11.25ZM6.375 12.75C8.23612 12.75 9.75 14.0959 9.75 15.75C9.75 17.4041 8.23612 18.75 6.375 18.75C4.51388 18.75 3 17.4041 3 15.75C3 14.0959 4.51388 12.75 6.375 12.75ZM17.625 12.75C19.4861 12.75 21 14.0959 21 15.75C21 17.4041 19.4861 18.75 17.625 18.75C15.7639 18.75 14.25 17.4041 14.25 15.75C14.25 14.0959 15.7639 12.75 17.625 12.75Z" fill="#2E3A46"/>
</svg>
