<svg width="24" height="24" viewBox="0 0 24 24" fill="none" xmlns="http://www.w3.org/2000/svg">
<g clip-path="url(#clip0_23_783)">
<path fill-rule="evenodd" clip-rule="evenodd" d="M10.4999 18C12.2099 18 13.7869 17.427 15.0499 16.463L19.7929 21.207C19.9815 21.3892 20.2341 21.49 20.4963 21.4877C20.7585 21.4854 21.0094 21.3802 21.1948 21.1948C21.3802 21.0094 21.4853 20.7586 21.4876 20.4964C21.4899 20.2342 21.3891 19.9816 21.2069 19.793L16.4629 15.049C17.4893 13.7036 18.0305 12.0507 17.9987 10.3589C17.9668 8.66704 17.3638 7.03568 16.2876 5.72988C15.2113 4.42409 13.7251 3.52062 12.0705 3.16628C10.4159 2.81195 8.69004 3.02757 7.17344 3.77811C5.65684 4.52865 4.43862 5.77 3.71673 7.30044C2.99485 8.83089 2.81172 10.5605 3.19711 12.2082C3.58251 13.8558 4.51377 15.3248 5.83957 16.3763C7.16537 17.4277 8.80779 18 10.4999 18ZM15.9999 10.5C15.9999 11.9587 15.4205 13.3576 14.389 14.3891C13.3576 15.4205 11.9586 16 10.4999 16C9.04125 16 7.64231 15.4205 6.61086 14.3891C5.57941 13.3576 4.99994 11.9587 4.99994 10.5C4.99994 9.04132 5.57941 7.64237 6.61086 6.61092C7.64231 5.57947 9.04125 5.00001 10.4999 5.00001C11.9586 5.00001 13.3576 5.57947 14.389 6.61092C15.4205 7.64237 15.9999 9.04132 15.9999 10.5Z" fill="#2E3A46"/>
</g>
<defs>
<clipPath id="clip0_23_783">
<rect width="24" height="24" fill="white"/>
</clipPath>
</defs>
</svg>
