<svg width="24" height="24" viewBox="0 0 24 24" fill="none" xmlns="http://www.w3.org/2000/svg">
<path d="M10.8955 3.75C10.3934 3.75 9.96439 4.11158 9.87964 4.6062L9.66138 5.87402C9.54663 5.9179 9.43218 5.96331 9.3208 6.01318L8.27197 5.27197C7.81147 4.9536 7.26875 5.07012 6.94775 5.3855L5.3855 6.94702C5.03037 7.30215 4.98321 7.86099 5.27271 8.27124L6.01318 9.3208C5.96293 9.43218 5.9179 9.54589 5.87402 9.66064L4.6062 9.87891C4.1112 9.96403 3.75 10.3934 3.75 10.8955V13.1045C3.75 13.6066 4.11158 14.0356 4.6062 14.1204L5.87402 14.3386C5.9179 14.4534 5.96331 14.5678 6.01318 14.6792L5.27197 15.728C4.98247 16.1379 5.03037 16.6971 5.3855 17.0522L6.94702 18.6145C7.35352 19.012 7.92174 18.9804 8.27124 18.7273L9.3208 17.9868C9.43218 18.0371 9.54589 18.0821 9.66064 18.126L9.87891 19.3938C9.96403 19.8888 10.3934 20.25 10.8955 20.25H13.1045C13.6066 20.25 14.0356 19.8884 14.1204 19.3938L14.3386 18.126C14.4534 18.0821 14.5678 18.0367 14.6792 17.9868L15.728 18.728C16.0374 18.956 16.6289 19.0383 17.0522 18.6145L18.6145 17.053C18.9696 16.6979 19.0168 16.139 18.7273 15.7288L17.9868 14.6792C18.0371 14.5678 18.0821 14.4541 18.126 14.3394L19.3938 14.1211C19.8888 14.036 20.25 13.6066 20.25 13.1045V10.8955C20.25 10.3934 19.8884 9.96439 19.3938 9.87964L18.126 9.66138C18.0821 9.54663 18.0367 9.43218 17.9868 9.3208L18.728 8.27197C19.0175 7.8621 18.9696 7.30288 18.6145 6.94775L17.053 5.3855C16.6566 4.9985 16.1071 5.00683 15.7288 5.27271L14.6792 6.01318C14.5678 5.96293 14.4541 5.9179 14.3394 5.87402L14.1211 4.6062C14.036 4.1112 13.6066 3.75 13.1045 3.75H10.8955ZM11.3306 5.25H12.6702C12.693 5.25 12.7126 5.26632 12.7163 5.28882L13.0056 6.97119C13.6686 7.20932 14.2893 7.4603 14.8462 7.73218L16.2385 6.74854C16.2573 6.73541 16.2832 6.73754 16.2993 6.75366L17.2463 7.70142C17.2625 7.71754 17.2653 7.74272 17.2522 7.76147L16.2678 9.15454C16.5524 9.75642 16.8091 10.3685 17.0288 10.9944L18.7112 11.2844C18.7337 11.2882 18.75 11.3077 18.75 11.3306V12.6702C18.75 12.693 18.7333 12.7126 18.7104 12.7163L17.0288 13.0056C16.8094 13.6315 16.5558 14.2447 16.2678 14.8462L17.2522 16.2393C17.2653 16.258 17.2625 16.2832 17.2463 16.2993L16.2993 17.2471C16.2832 17.2632 16.2573 17.2653 16.2385 17.2522L14.8462 16.2686C14.2312 16.5577 13.6176 16.8109 13.0056 17.0295L12.7156 18.7112C12.7118 18.7337 12.6923 18.75 12.6694 18.75H11.3298C11.307 18.75 11.2874 18.7333 11.2837 18.7104L10.9944 17.0288C10.391 16.8192 9.77818 16.5693 9.15381 16.2678L7.76074 17.2522C7.74199 17.2653 7.71681 17.2625 7.70068 17.2463L6.75293 16.2993C6.7368 16.2832 6.73468 16.2573 6.7478 16.2385L7.73145 14.8462C7.43932 14.2218 7.18571 13.6082 6.97046 13.0056L5.28882 12.7156C5.26632 12.7118 5.25 12.6923 5.25 12.6694V11.3298C5.25 11.307 5.26632 11.2878 5.28882 11.2837L6.97119 10.9937C7.18907 10.3802 7.43893 9.76693 7.73218 9.15381L6.7478 7.76074C6.73468 7.74199 6.73754 7.71681 6.75366 7.70068L7.70068 6.75293C7.71681 6.7368 7.74272 6.73468 7.76147 6.7478L9.15381 7.73145C9.73431 7.45282 10.3498 7.20071 10.9944 6.97046L11.2844 5.28882C11.2882 5.26632 11.3077 5.25 11.3306 5.25ZM12 8.625C10.1359 8.625 8.625 10.1359 8.625 12C8.625 13.8641 10.1359 15.375 12 15.375C13.8641 15.375 15.375 13.8641 15.375 12C15.375 10.1359 13.8641 8.625 12 8.625ZM12 10.125C13.0354 10.125 13.875 10.9646 13.875 12C13.875 13.0354 13.0354 13.875 12 13.875C10.9646 13.875 10.125 13.0354 10.125 12C10.125 10.9646 10.9646 10.125 12 10.125Z" fill="#2E3A46"/>
</svg>
