<svg width="24" height="24" viewBox="0 0 24 24" fill="none" xmlns="http://www.w3.org/2000/svg">
<path d="M10.875 2.73438C7.8915 3.26912 5.625 5.86178 5.625 8.62891C5.625 10.739 6.666 12.5761 8.625 13.5383V17.6289C8.625 19.493 10.1359 21.0039 12 21.0039C13.8641 21.0039 15.375 19.493 15.375 17.6289V13.5383C17.334 12.5761 18.375 10.7394 18.375 8.62891C18.375 5.86178 16.1085 3.26912 13.125 2.73438V7.12891C13.125 7.75028 12.6214 8.25391 12 8.25391C11.3786 8.25391 10.875 7.75028 10.875 7.12891V2.73438Z" fill="#2E3A46"/>
<path d="M11.25 17.625C11.25 17.2106 11.5856 16.875 12 16.875C12.4144 16.875 12.75 17.2106 12.75 17.625C12.75 18.0394 12.4144 18.375 12 18.375C11.5856 18.375 11.25 18.0394 11.25 17.625Z" fill="white"/>
</svg>
