<svg width="24" height="24" viewBox="0 0 24 24" fill="none" xmlns="http://www.w3.org/2000/svg">
<path d="M10.875 2.73438C7.8915 3.26912 5.625 5.86178 5.625 8.62891C5.625 10.739 6.666 12.5761 8.625 13.5383V17.6289C8.625 19.493 10.1359 21.0039 12 21.0039C13.8641 21.0039 15.375 19.493 15.375 17.6289V13.5383C17.334 12.5761 18.375 10.7394 18.375 8.62891C18.375 5.86178 16.1085 3.26912 13.125 2.73438V7.12891C13.125 7.75028 12.6214 8.25391 12 8.25391C11.3786 8.25391 10.875 7.75028 10.875 7.12891V2.73438ZM9.375 4.99463V7.12891C9.375 8.57866 10.5503 9.75391 12 9.75391C13.4497 9.75391 14.625 8.57866 14.625 7.12891V4.99463C15.9769 5.85488 16.875 7.36354 16.875 9.11816C16.875 10.8342 15.6364 12.0979 13.875 12.6177V17.6296C13.875 18.665 13.0354 19.5046 12 19.5046C10.9646 19.5046 10.125 18.665 10.125 17.6296V12.6177C8.36363 12.0976 7.125 10.8338 7.125 9.11816C7.125 7.36354 8.02312 5.8545 9.375 4.99463ZM12 16.8789C11.5856 16.8789 11.25 17.2145 11.25 17.6289C11.25 18.0433 11.5856 18.3789 12 18.3789C12.4144 18.3789 12.75 18.0433 12.75 17.6289C12.75 17.2145 12.4144 16.8789 12 16.8789Z" fill="#2E3A46"/>
</svg>
