<svg width="24" height="24" viewBox="0 0 24 24" fill="none" xmlns="http://www.w3.org/2000/svg">
<path d="M17 8.5C18.3807 8.5 19.5 7.38071 19.5 6C19.5 4.61929 18.3807 3.5 17 3.5C15.6193 3.5 14.5 4.61929 14.5 6C14.5 7.38071 15.6193 8.5 17 8.5Z" stroke="#2E3A46" stroke-width="2" stroke-linecap="round" stroke-linejoin="round"/>
<path d="M7 14.5C8.38071 14.5 9.5 13.3807 9.5 12C9.5 10.6193 8.38071 9.5 7 9.5C5.61929 9.5 4.5 10.6193 4.5 12C4.5 13.3807 5.61929 14.5 7 14.5Z" stroke="#2E3A46" stroke-width="2" stroke-linecap="round" stroke-linejoin="round"/>
<path d="M17 20.5C18.3807 20.5 19.5 19.3807 19.5 18C19.5 16.6193 18.3807 15.5 17 15.5C15.6193 15.5 14.5 16.6193 14.5 18C14.5 19.3807 15.6193 20.5 17 20.5Z" stroke="#2E3A46" stroke-width="2" stroke-linecap="round" stroke-linejoin="round"/>
<path d="M9.5 13.5L14.5 16.5" stroke="#2E3A46" stroke-width="2" stroke-linecap="round" stroke-linejoin="round"/>
<path d="M14.5 7.5L9.5 10.5" stroke="#2E3A46" stroke-width="2" stroke-linecap="round" stroke-linejoin="round"/>
</svg>
