<svg width="24" height="24" viewBox="0 0 24 24" fill="none" xmlns="http://www.w3.org/2000/svg">
<path d="M8.5 5.22656C8.5 3.98392 9.50736 2.97656 10.75 2.97656H13.25C14.4926 2.97656 15.5 3.98392 15.5 5.22656V6.99656H18.75C19.9926 6.99656 21 8.00392 21 9.24656V20.2466C21 20.6608 20.6642 20.9966 20.25 20.9966H3.75C3.33579 20.9966 3 20.6608 3 20.2466V12.2466C3 11.0039 4.00736 9.99656 5.25 9.99656H8.5V5.22656ZM10 19.4966H14V5.22656C14 4.81235 13.6642 4.47656 13.25 4.47656H10.75C10.3358 4.47656 10 4.81235 10 5.22656V19.4966ZM8.5 11.4966H5.25C4.83579 11.4966 4.5 11.8323 4.5 12.2466V19.4966H8.5V11.4966ZM15.5 19.4966V8.49656H18.75C19.1642 8.49656 19.5 8.83235 19.5 9.24656V19.4966H15.5Z" fill="#2E3A46"/>
</svg>
