<svg width="24" height="24" viewBox="0 0 24 24" fill="none" xmlns="http://www.w3.org/2000/svg">
<path d="M13.5 3.75C11.0726 3.75 8.83425 5.07032 7.64062 7.15869C7.4685 7.13657 7.29637 7.125 7.125 7.125C5.1135 7.125 3.43772 8.53899 3.07397 10.4744C1.63097 11.3586 0.75 12.9146 0.75 14.625C0.75 17.313 2.937 19.5 5.625 19.5H18C20.895 19.5 23.25 17.145 23.25 14.25C23.25 12.1796 22.0288 10.3158 20.1665 9.47168C19.6666 6.22718 16.8255 3.75 13.5 3.75ZM13.5 5.25C16.6886 5.25 18.8107 8.02116 18.7676 10.5505C20.3122 10.9372 21.75 12.2738 21.75 14.25C21.75 16.3177 20.0677 18 18 18H5.625C3.76388 18 2.25 16.4858 2.25 14.625C2.25 12.9484 3.3692 11.9192 4.47583 11.428C4.46158 10.159 5.31787 8.625 7.125 8.625C7.66725 8.625 8.15454 8.82234 8.46167 8.90259C9.23905 6.83446 11.0779 5.25 13.5 5.25ZM12 9.271C11.796 9.271 11.5926 9.3593 11.4536 9.53687L9.52368 12.0029C9.16706 12.4589 9.49218 13.125 10.0708 13.125H11.25V15.75C11.25 16.1644 11.586 16.5 12 16.5C12.414 16.5 12.75 16.1644 12.75 15.75V13.125H13.9292C14.5078 13.125 14.8326 12.4589 14.4763 12.0029L12.5471 9.53687C12.408 9.3593 12.204 9.271 12 9.271Z" fill="#2E3A46"/>
</svg>
