<svg width="24" height="24" viewBox="0 0 24 24" fill="none" xmlns="http://www.w3.org/2000/svg">
<path fill-rule="evenodd" clip-rule="evenodd" d="M16.5785 13.9804C16.331 13.8539 15.1066 13.2572 14.8787 13.1729C14.6508 13.0886 14.4879 13.0497 14.3186 13.2994C14.1493 13.5491 13.6674 14.1036 13.5273 14.2722C13.3873 14.4409 13.2375 14.4603 12.99 14.3339C12.2569 14.0415 11.5804 13.6246 10.9907 13.1016C10.4466 12.6003 9.97926 12.0223 9.60348 11.3861C9.57558 11.3459 9.55625 11.3005 9.5467 11.2526C9.53715 11.2047 9.53757 11.1553 9.54795 11.1076C9.55833 11.0599 9.57845 11.0148 9.60704 10.9751C9.63564 10.9354 9.67211 10.902 9.7142 10.877C9.82817 10.7667 9.96168 10.5883 10.0887 10.4424C10.1902 10.3162 10.2735 10.1765 10.3362 10.0273C10.3688 9.95882 10.3841 9.88338 10.3807 9.80762C10.3773 9.73186 10.3553 9.65809 10.3166 9.59277C10.2515 9.46954 9.75327 8.25023 9.55138 7.75082C9.34949 7.25142 9.14109 7.33573 8.98804 7.32601C8.83499 7.31628 8.67869 7.32601 8.51262 7.32601C8.3876 7.33298 8.26533 7.36535 8.15333 7.42112C8.04134 7.47689 7.94198 7.55488 7.86136 7.65029C7.57962 7.91591 7.35653 8.23706 7.20628 8.59327C7.05603 8.94948 6.98192 9.33294 6.98867 9.71925C6.98867 10.9386 7.88089 12.1157 8.00463 12.2844C8.12837 12.453 9.74025 14.937 12.2476 16.0072C12.7105 16.2062 13.1833 16.3815 13.6641 16.5325C14.1714 16.6863 14.7078 16.7196 15.2304 16.6298C15.7091 16.5617 16.7022 16.0331 16.9106 15.4526C17.074 15.083 17.1249 14.6737 17.0572 14.2755C16.9986 14.1652 16.8325 14.1036 16.5818 13.9771L16.5785 13.9804ZM19.0859 4.90034C17.3772 3.20121 15.1069 2.17803 12.6974 2.02115C10.2879 1.86426 7.90315 2.58435 5.98686 4.04745C4.07057 5.51056 2.75319 7.61706 2.27978 9.97509C1.80637 12.3331 2.20917 14.7821 3.41324 16.8665L2 22L7.28173 20.6218C8.7408 21.4121 10.375 21.8268 12.0359 21.8281C14.0063 21.8287 15.9326 21.2474 17.5711 20.1576C19.2096 19.0678 20.4868 17.5186 21.2411 15.7058C21.9955 13.8931 22.193 11.8983 21.8088 9.97376C21.4245 8.04922 20.4758 6.28138 19.0826 4.89385L19.0859 4.90034ZM12.0425 20.1548C10.5535 20.1577 9.09121 19.7611 7.80926 19.0068L7.50642 18.8252L4.39013 19.6327L5.227 16.5909L5.03162 16.2666C4.06309 14.7158 3.63934 12.8885 3.82694 11.0717C4.01454 9.25503 4.80286 7.55185 6.06805 6.22979C7.33325 4.90773 9.00362 4.0417 10.8167 3.76777C12.6299 3.49384 14.483 3.82753 16.085 4.71641C17.687 5.60529 18.9471 6.999 19.6673 8.67856C20.3875 10.3581 20.527 12.2284 20.0639 13.9955C19.6008 15.7626 18.5614 17.3264 17.1089 18.4413C15.6563 19.5562 13.8731 20.1589 12.0392 20.1548H12.0425Z" fill="#2E3A46"/>
</svg>
