<svg width="282" height="50" viewBox="0 0 282 50" fill="none" xmlns="http://www.w3.org/2000/svg">
<circle cx="25" cy="25" r="23" fill="#4DE088" stroke="#2E3A46" stroke-width="4"/>
<path d="M22.5358 31.5007C22.3899 31.5006 22.2455 31.4684 22.1108 31.406C21.9697 31.3401 21.8417 31.2436 21.7345 31.1219L17.3399 26.225C17.1222 25.9803 17 25.6496 17 25.305C17 24.9604 17.1222 24.6298 17.3399 24.3851C17.4451 24.2634 17.5715 24.167 17.7114 24.1019C17.8513 24.0367 18.0017 24.0042 18.1533 24.0063C18.4664 24.0051 18.7673 24.1412 18.991 24.3851L22.5358 28.3351L31.034 18.893C31.1397 18.7711 31.266 18.6737 31.4056 18.6063C31.5452 18.539 31.6953 18.5031 31.8474 18.5007C32.0006 18.4949 32.153 18.5271 32.2937 18.5949C32.4344 18.6628 32.5597 18.7646 32.6608 18.893C32.8786 19.1377 33.0007 19.4683 33.0007 19.8129C33.0007 20.1575 32.8786 20.4881 32.6608 20.7328L23.3368 31.1221C23.2296 31.2438 23.1016 31.3404 22.9604 31.4062C22.8258 31.4686 22.6815 31.5007 22.5358 31.5007Z" fill="#2E3A46"/>
<circle cx="83" cy="25" r="23" fill="#4DE088" stroke="#2E3A46" stroke-width="4"/>
<path d="M80.5358 31.5007C80.3899 31.5006 80.2455 31.4684 80.1108 31.406C79.9697 31.3401 79.8417 31.2436 79.7345 31.1219L75.3399 26.225C75.1222 25.9803 75 25.6496 75 25.305C75 24.9604 75.1222 24.6298 75.3399 24.3851C75.4451 24.2634 75.5715 24.167 75.7114 24.1019C75.8513 24.0367 76.0017 24.0042 76.1533 24.0063C76.4664 24.0051 76.7673 24.1412 76.991 24.3851L80.5358 28.3351L89.034 18.893C89.1397 18.7711 89.266 18.6737 89.4056 18.6063C89.5452 18.539 89.6953 18.5031 89.8474 18.5007C90.0006 18.4949 90.153 18.5271 90.2937 18.5949C90.4344 18.6628 90.5597 18.7646 90.6608 18.893C90.8786 19.1377 91.0007 19.4683 91.0007 19.8129C91.0007 20.1575 90.8786 20.4881 90.6608 20.7328L81.3368 31.1221C81.2296 31.2438 81.1016 31.3404 80.9604 31.4062C80.8258 31.4686 80.6815 31.5007 80.5358 31.5007Z" fill="#2E3A46"/>
<circle cx="257" cy="25" r="23" fill="#E9E9E9" stroke="#2E3A46" stroke-width="4"/>
<circle cx="199" cy="25" r="23" fill="#E9E9E9" stroke="#2E3A46" stroke-width="4"/>
<circle cx="141" cy="25" r="23" fill="#4DE088" stroke="#2E3A46" stroke-width="4"/>
<path d="M138.536 31.5007C138.39 31.5006 138.245 31.4684 138.111 31.406C137.97 31.3401 137.842 31.2436 137.734 31.1219L133.34 26.225C133.122 25.9803 133 25.6496 133 25.305C133 24.9604 133.122 24.6298 133.34 24.3851C133.445 24.2634 133.572 24.167 133.711 24.1019C133.851 24.0367 134.002 24.0042 134.153 24.0063C134.466 24.0051 134.767 24.1412 134.991 24.3851L138.536 28.3351L147.034 18.893C147.14 18.7711 147.266 18.6737 147.406 18.6063C147.545 18.539 147.695 18.5031 147.847 18.5007C148.001 18.4949 148.153 18.5271 148.294 18.5949C148.434 18.6628 148.56 18.7646 148.661 18.893C148.879 19.1377 149.001 19.4683 149.001 19.8129C149.001 20.1575 148.879 20.4881 148.661 20.7328L139.337 31.1221C139.23 31.2438 139.102 31.3404 138.96 31.4062C138.826 31.4686 138.682 31.5007 138.536 31.5007Z" fill="#2E3A46"/>
</svg>
