<svg width="282" height="50" viewBox="0 0 282 50" fill="none" xmlns="http://www.w3.org/2000/svg">
<line x1="25" y1="25" x2="262" y2="25" stroke="#2E3A46" stroke-width="4"/>
<circle cx="25" cy="25" r="23" fill="#4DE088" stroke="#2E3A46" stroke-width="4"/>
<path d="M22.5358 31.5007C22.3899 31.5006 22.2455 31.4684 22.1108 31.406C21.9697 31.3401 21.8417 31.2436 21.7345 31.1219L17.3399 26.225C17.1222 25.9803 17 25.6496 17 25.305C17 24.9604 17.1222 24.6298 17.3399 24.3851C17.4451 24.2634 17.5715 24.167 17.7114 24.1019C17.8513 24.0367 18.0017 24.0042 18.1533 24.0063C18.4664 24.0051 18.7673 24.1412 18.991 24.3851L22.5358 28.3351L31.034 18.893C31.1397 18.7711 31.266 18.6737 31.4056 18.6063C31.5452 18.539 31.6953 18.5031 31.8474 18.5007C32.0006 18.4949 32.153 18.5271 32.2937 18.5949C32.4344 18.6628 32.5597 18.7646 32.6608 18.893C32.8786 19.1377 33.0007 19.4683 33.0007 19.8129C33.0007 20.1575 32.8786 20.4881 32.6608 20.7328L23.3368 31.1221C23.2296 31.2438 23.1016 31.3404 22.9604 31.4062C22.8258 31.4686 22.6815 31.5007 22.5358 31.5007Z" fill="#2E3A46"/>
<circle cx="257" cy="25" r="23" fill="#E9E9E9" stroke="#2E3A46" stroke-width="4"/>
<circle cx="199" cy="25" r="23" fill="#E9E9E9" stroke="#2E3A46" stroke-width="4"/>
<circle cx="141" cy="25" r="23" fill="#E9E9E9" stroke="#2E3A46" stroke-width="4"/>
<circle cx="83" cy="25" r="23" fill="#E9E9E9" stroke="#2E3A46" stroke-width="4"/>
</svg>
