<svg width="393" height="852" viewBox="0 0 393 852" fill="none" xmlns="http://www.w3.org/2000/svg">
<g clip-path="url(#clip0_261_5775)">
<rect x="239.273" y="69" width="68.3282" height="273.54" rx="34.1641" transform="rotate(45 239.273 69)" fill="#FF5580"/>
<rect x="94.0859" y="76" width="19.7014" height="111.841" rx="9.8507" transform="rotate(45 94.0859 76)" fill="#FFDC00"/>
<rect x="205.156" y="23" width="28.2183" height="318.048" rx="14.1092" transform="rotate(45 205.156 23)" fill="#2E46FF"/>
<line x1="122" y1="194" x2="272" y2="194" stroke="#2E3A46" stroke-width="4"/>
<circle cx="272" cy="194" r="23" fill="#D9D9D9" stroke="#2E3A46" stroke-width="4"/>
<circle cx="122" cy="194" r="23" fill="#4DE088" stroke="#2E3A46" stroke-width="4"/>
<circle cx="197" cy="194" r="23" fill="#4DE088" stroke="#2E3A46" stroke-width="4"/>
<path d="M119.536 200.501C119.39 200.501 119.245 200.468 119.111 200.406C118.97 200.34 118.842 200.244 118.734 200.122L114.34 195.225C114.122 194.98 114 194.65 114 194.305C114 193.96 114.122 193.63 114.34 193.385C114.445 193.263 114.572 193.167 114.711 193.102C114.851 193.037 115.002 193.004 115.153 193.006C115.466 193.005 115.767 193.141 115.991 193.385L119.536 197.335L128.034 187.893C128.14 187.771 128.266 187.674 128.406 187.606C128.545 187.539 128.695 187.503 128.847 187.501C129.001 187.495 129.153 187.527 129.294 187.595C129.434 187.663 129.56 187.765 129.661 187.893C129.879 188.138 130.001 188.468 130.001 188.813C130.001 189.157 129.879 189.488 129.661 189.733L120.337 200.122C120.23 200.244 120.102 200.34 119.96 200.406C119.826 200.469 119.682 200.501 119.536 200.501Z" fill="#2E3A46"/>
<path d="M194.536 200.501C194.39 200.501 194.245 200.468 194.111 200.406C193.97 200.34 193.842 200.244 193.734 200.122L189.34 195.225C189.122 194.98 189 194.65 189 194.305C189 193.96 189.122 193.63 189.34 193.385C189.445 193.263 189.572 193.167 189.711 193.102C189.851 193.037 190.002 193.004 190.153 193.006C190.466 193.005 190.767 193.141 190.991 193.385L194.536 197.335L203.034 187.893C203.14 187.771 203.266 187.674 203.406 187.606C203.545 187.539 203.695 187.503 203.847 187.501C204.001 187.495 204.153 187.527 204.294 187.595C204.434 187.663 204.56 187.765 204.661 187.893C204.879 188.138 205.001 188.468 205.001 188.813C205.001 189.157 204.879 189.488 204.661 189.733L195.337 200.122C195.23 200.244 195.102 200.34 194.96 200.406C194.826 200.469 194.682 200.501 194.536 200.501Z" fill="#2E3A46"/>
</g>
<defs>
<clipPath id="clip0_261_5775">
<rect width="393" height="852" fill="white"/>
</clipPath>
</defs>
</svg>
